<svg width="64" height="64" viewBox="0 0 64 64" fill="none" xmlns="http://www.w3.org/2000/svg">
<path d="M51.4678 29L19.2678 29L34.1098 14.158C34.3963 13.8813 34.6248 13.5502 34.7821 13.1842C34.9393 12.8182 35.0221 12.4245 35.0255 12.0262C35.029 11.6279 34.9531 11.2328 34.8022 10.8641C34.6514 10.4955 34.4286 10.1605 34.1469 9.87882C33.8653 9.59715 33.5303 9.37438 33.1616 9.22354C32.7929 9.0727 32.3979 8.9968 31.9996 9.00026C31.6012 9.00372 31.2076 9.08648 30.8416 9.2437C30.4755 9.40093 30.1445 9.62948 29.8678 9.91601L9.86776 29.916C9.30535 30.4786 8.9894 31.2415 8.9894 32.037C8.9894 32.8325 9.30535 33.5954 9.86776 34.158L29.8478 54.122C30.1264 54.4005 30.4572 54.6214 30.8213 54.7721C31.1853 54.9228 31.5755 55.0003 31.9695 55.0002C32.3635 55.0002 32.7536 54.9225 33.1176 54.7716C33.4815 54.6207 33.8122 54.3997 34.0908 54.121C34.3693 53.8423 34.5902 53.5115 34.7409 53.1475C34.8916 52.7834 34.9691 52.3933 34.969 51.9993C34.9688 51.2036 34.6526 50.4405 34.0898 49.878L19.1998 35H51.4678C52.2634 35 53.0265 34.6839 53.5891 34.1213C54.1517 33.5587 54.4678 32.7956 54.4678 32C54.4678 31.2044 54.1517 30.4413 53.5891 29.8787C53.0265 29.3161 52.2634 29 51.4678 29Z" fill="url(#paint0_linear_99_174)"/>
<defs>
<linearGradient id="paint0_linear_99_174" x1="8.98939" y1="55.0002" x2="59.016" y2="46.6264" gradientUnits="userSpaceOnUse">
<stop stop-color="#00A79D"/>
<stop offset="1" stop-color="#8C41CE"/>
</linearGradient>
</defs>
</svg>
