<svg width="100" height="100" viewBox="0 0 100 100" fill="none" xmlns="http://www.w3.org/2000/svg">
<rect width="100" height="100" rx="50" fill="url(#paint0_linear_12_182)"/>
<rect width="100" height="100" rx="50" fill="url(#paint1_linear_12_182)"/>
<rect width="100" height="100" rx="50" fill="url(#paint2_linear_12_182)"/>
<g clip-path="url(#clip0_12_182)">
<path d="M50 31.4275C56.0492 31.4275 56.7667 31.4502 59.1569 31.5597C65.2967 31.8391 68.1646 34.7523 68.4441 40.8469C68.5536 43.2352 68.5743 43.9527 68.5743 50.0019C68.5743 56.053 68.5517 56.7686 68.4441 59.1569C68.1628 65.2458 65.3024 68.1646 59.1569 68.4441C56.7667 68.5536 56.053 68.5762 50 68.5762C43.9508 68.5762 43.2333 68.5536 40.845 68.4441C34.69 68.1628 31.8372 65.2363 31.5578 59.155C31.4483 56.7667 31.4257 56.0511 31.4257 50C31.4257 43.9508 31.4502 43.2352 31.5578 40.845C31.8391 34.7523 34.6995 31.8372 40.845 31.5578C43.2352 31.4502 43.9508 31.4275 50 31.4275ZM50 27.3438C43.8469 27.3438 43.0766 27.3702 40.66 27.4797C32.432 27.8573 27.8592 32.4225 27.4816 40.6581C27.3702 43.0766 27.3438 43.8469 27.3438 50C27.3438 56.1531 27.3702 56.9253 27.4797 59.3419C27.8573 67.5699 32.4225 72.1427 40.6581 72.5203C43.0766 72.6298 43.8469 72.6562 50 72.6562C56.1531 72.6562 56.9253 72.6298 59.3419 72.5203C67.5624 72.1427 72.1465 67.5775 72.5184 59.3419C72.6298 56.9253 72.6562 56.1531 72.6562 50C72.6562 43.8469 72.6298 43.0766 72.5203 40.66C72.1503 32.4395 67.5794 27.8592 59.3438 27.4816C56.9253 27.3702 56.1531 27.3438 50 27.3438V27.3438ZM50 38.366C43.5751 38.366 38.366 43.5751 38.366 50C38.366 56.4249 43.5751 61.6359 50 61.6359C56.4249 61.6359 61.634 56.4268 61.634 50C61.634 43.5751 56.4249 38.366 50 38.366ZM50 57.5521C45.8294 57.5521 42.4479 54.1725 42.4479 50C42.4479 45.8294 45.8294 42.4479 50 42.4479C54.1706 42.4479 57.5521 45.8294 57.5521 50C57.5521 54.1725 54.1706 57.5521 50 57.5521ZM62.0947 35.1885C60.5918 35.1885 59.374 36.4062 59.374 37.9072C59.374 39.4082 60.5918 40.626 62.0947 40.626C63.5956 40.626 64.8115 39.4082 64.8115 37.9072C64.8115 36.4062 63.5956 35.1885 62.0947 35.1885Z" fill="white"/>
</g>
<defs>
<linearGradient id="paint0_linear_12_182" x1="88.6719" y1="3.90625" x2="16.0156" y2="98.0469" gradientUnits="userSpaceOnUse">
<stop stop-color="#8940BF"/>
<stop offset="0.494792" stop-color="#E5365F"/>
<stop offset="0.63954" stop-color="#EC6937"/>
<stop offset="1" stop-color="#F9DB81"/>
</linearGradient>
<linearGradient id="paint1_linear_12_182" x1="50" y1="-8.59375" x2="87.8906" y2="126.953" gradientUnits="userSpaceOnUse">
<stop stop-color="#4B64D3"/>
<stop offset="0.16707" stop-color="#B9328E"/>
<stop offset="0.315099" stop-color="#B9328E" stop-opacity="0"/>
</linearGradient>
<linearGradient id="paint2_linear_12_182" x1="101.953" y1="72.2656" x2="67.1875" y2="65.2344" gradientUnits="userSpaceOnUse">
<stop stop-color="#DD3073"/>
<stop offset="1" stop-color="#DE2F6D" stop-opacity="0"/>
</linearGradient>
<clipPath id="clip0_12_182">
<rect width="45.3125" height="45.3125" fill="white" transform="translate(27.3438 27.3438)"/>
</clipPath>
</defs>
</svg>
