<svg width="440" height="125" viewBox="0 0 440 125" fill="none" xmlns="http://www.w3.org/2000/svg">
<g clip-path="url(#clip0_12_143)">
<path d="M359.22 50.6388L333.936 37.7411L219.984 42.2634L181.265 111.631L359.22 50.6388Z" fill="#69E3FF"/>
<path d="M325.745 86.0175L359.22 50.6389L181.265 111.631L325.745 86.0175Z" fill="#00A4FF"/>
<path d="M181.265 111.631L220.35 43.4994L98.3887 95.2397L181.265 111.631Z" fill="#48CBFF"/>
<path d="M98.3887 95.2397L220.35 43.4994L140.514 0L98.3887 95.2397Z" fill="#7BFCFF"/>
<path d="M0 63.5131L110.005 68.9752L140.514 0C137.129 0.135176 26.705 34.7822 26.705 34.7822L0 63.5131Z" fill="#7BFCFF"/>
<path d="M11.9918 80.5222L127.752 100.242L110.005 68.9752L0 63.5131L11.9918 80.5222Z" fill="#48CBFF"/>
<path d="M109.113 73.112L127.752 100.242L110.005 68.9751L51.3672 66.3746L109.113 73.112Z" fill="#36BCFF"/>
<path d="M109.346 70.4663L138.856 3.74646L106.333 70.2011L109.346 70.4663Z" fill="#36BCFF"/>
<g opacity="0.23">
<path opacity="0.23" d="M304.182 38.9307L290.896 39.4578C299.371 48.0852 308.089 56.5026 316.23 65.3872L332.2 59.9136C323.059 52.6609 313.719 45.6665 304.182 38.9307Z" fill="white"/>
<path opacity="0.23" d="M255.826 40.8496L249.389 41.1051C259.85 53.197 270.208 65.3773 280.462 77.646L298.204 71.5651C284.078 61.3268 269.952 51.0883 255.826 40.8496Z" fill="white"/>
<path opacity="0.23" d="M222.405 97.5446L270.346 81.1133C252.16 70.6843 233.9 60.3872 215.565 50.2218L199.25 79.4512C207.222 85.1328 214.912 91.2092 222.405 97.5446Z" fill="#00A4FF"/>
</g>
<path d="M220.35 43.4994L333.936 37.7411L140.514 0L220.35 43.4994Z" fill="#7BFCFF"/>
<path d="M181.265 111.631L220.35 43.4994L178.644 111.112L181.265 111.631Z" fill="white"/>
<path d="M217.497 44.7095L220.35 43.4995L153.221 6.92334L217.497 44.7095Z" fill="white"/>
<path d="M220.35 43.4994L217.097 43.213L172.227 63.9145L220.35 43.4994Z" fill="white"/>
<path d="M217.097 43.213L218.218 47.215L333.936 37.7411L217.097 43.213Z" fill="white"/>
<path d="M203.374 107.711L339.769 57.3052C338.853 57.6191 181.265 111.631 181.265 111.631L203.374 107.711Z" fill="#087EFF"/>
<g opacity="0.57">
<path opacity="0.57" d="M219.604 44.7094L297.79 39.5799C293.24 39.8687 251.603 42.2458 222.806 34.4876C192.312 26.272 140.514 0 140.514 0L219.604 44.7094Z" fill="white"/>
<path opacity="0.57" d="M297.789 39.5799C298.057 39.5628 298.204 39.5527 298.204 39.5527L297.789 39.5799Z" fill="white"/>
</g>
<g opacity="0.43">
<path opacity="0.43" d="M0 63.5131L110.005 68.9752L140.514 0C140.514 0 110.55 33.7769 74.7525 49.2286C38.9544 64.68 0 63.5131 0 63.5131Z" fill="white"/>
</g>
<path d="M238.987 79.525C238.987 79.525 273.554 96.2802 275.4 96.3522C277.246 96.4244 383.549 91.6267 383.549 91.6267L434.879 68.4701L367.774 47.1431L262.267 50.7247L238.987 79.525Z" fill="#7BFCFF"/>
<path d="M395.608 120.591L383.55 91.6267L275.4 96.3522L277.008 125.408L395.608 120.591Z" fill="#48CBFF"/>
<path d="M439.875 87.3713L434.88 68.47L383.55 91.6268L395.609 120.591L439.875 87.3713Z" fill="#36BCFF"/>
<path opacity="0.57" d="M238.988 79.4938C238.988 79.4938 251.629 85.6207 262.031 90.4807C262.305 87.8402 262.53 85.1944 263.445 82.9366C266.457 75.5014 273.956 71.0775 280.897 67.86C306.56 55.9644 335.66 53.8699 363.945 54.45C374.785 54.6724 385.609 55.2607 396.417 56.2149L367.775 47.1118L262.268 50.6934L238.988 79.4938Z" fill="white"/>
<path opacity="0.46" d="M275.9 96.2092C276.196 96.2206 279.185 96.1066 283.98 95.9078C298.422 80.0688 312.865 64.2297 327.307 48.3906L288.553 49.7063C277.797 62.3519 266.859 74.8399 255.738 87.1703C264.99 91.5569 274.933 96.1713 275.9 96.2092Z" fill="white"/>
<path opacity="0.46" d="M368.274 47L365.359 47.099C352.224 62.1616 339.848 77.8786 327.994 93.9919C334.341 93.7105 340.72 93.4262 346.789 93.1553C363.3 80.3739 380.321 68.2121 397.508 56.2912L368.274 47Z" fill="white"/>
<path d="M235 95.9587L277.014 125.283L275.406 96.2276L238.993 79.4001L235 95.9587Z" fill="#69E3FF"/>
<path d="M275.405 96.2276L383.549 91.6266L278.314 92.0515L238.992 79.4001L275.405 96.2276Z" fill="white"/>
<path d="M434.879 68.47L383.55 91.6266L395.609 120.591C395.609 120.591 392.92 108.768 401.152 97.4902C409.384 86.2128 434.879 68.47 434.879 68.47Z" fill="#00A4FF"/>
</g>
<defs>
<clipPath id="clip0_12_143">
<rect width="440" height="125" fill="white"/>
</clipPath>
</defs>
</svg>
