<svg width="73" height="97" viewBox="0 0 73 97" fill="none" xmlns="http://www.w3.org/2000/svg">
<path d="M65.1945 41.7707L63.3378 41.7668C63.5001 42.3355 63.5867 42.9356 63.5854 43.557L63.4905 88.6662C63.4829 92.2342 60.5845 95.1205 57.0165 95.113C53.4485 95.1055 50.5609 92.207 50.5684 88.639L50.6633 43.5305C50.6646 42.9091 50.7537 42.3094 50.9184 41.7413C47.5965 42.3215 2.67012 40.0947 1.24724 43.1986C2.5869 36.0044 12.3656 33.321 17.1916 38.7988C17.2488 28.5044 32.1959 26.2749 35.3549 35.9125C37.8447 35.7689 40.2679 36.6675 42.0148 38.2156C44.4506 31.2931 55.1142 30.4301 58.6385 36.8684C64.3268 33.9766 70.1742 36.6448 70.5 43C68.7508 41.2817 67.8388 41.7763 65.1945 41.7707Z" fill="#A7CA4A"/>
<g opacity="0.3">
<path d="M72 43C71.8361 42.8388 71.6753 43.1492 71.5 43C69.7038 38.099 63.5442 36.3839 58.6343 38.8792C55.11 32.4409 44.4463 33.3039 42.0106 40.2264C40.2637 38.6783 37.8411 37.7791 35.3506 37.9233C32.191 28.2851 17.2446 30.5145 17.1874 40.8089C12.9959 36.0517 5.068 37.4507 2.17952 42.6147C1.66973 42.7845 1.34825 42.9782 1.24724 43.1985C2.58757 36.0043 12.3656 33.3209 17.1916 38.798C17.2488 28.5036 32.1952 26.2742 35.3549 35.9124C37.8453 35.7682 40.2679 36.6674 42.0148 38.2155C44.4506 31.293 55.1142 30.43 58.6385 36.8683C64.3268 33.9772 71.6749 36.6455 72 43Z" fill="white"/>
</g>
<g opacity="0.3">
<path d="M63.4916 88.0663C63.7679 91.8326 60.8297 95.1417 57.0164 95.1143C53.4484 95.1068 50.5608 92.2083 50.5683 88.6403L50.6632 43.5305C50.6645 42.9091 50.7536 42.3094 50.9183 41.7413C47.5964 42.3215 2.67001 40.0947 1.24712 43.1986C1.56797 41.7172 2.24044 40.3673 3.17252 39.2391L50.6104 39.3389C50.7948 39.2951 51.6739 39.1046 52.5724 39.6239C53.4796 40.148 53.7512 41.0166 53.8031 41.197C53.8951 54.8292 53.9884 68.4607 54.081 82.0928C53.9771 82.7368 53.8347 84.1863 54.5318 85.753C55.6628 88.8595 60.3099 90.8467 63.4923 88.0669L63.4916 88.0663Z" fill="#31353F"/>
</g>
<path d="M49.3048 22.3681C49.2109 28.1499 40.5599 28.1766 40.4696 22.3495C40.5642 16.5677 49.2139 16.543 49.3048 22.3681Z" fill="#A7CA4A"/>
<g opacity="0.3">
<path d="M48.8199 24.3733C46.1038 29.4827 38.3868 25.576 40.957 20.3376C42.0606 23.3992 45.6763 25.2817 48.8199 24.3733Z" fill="#31353F"/>
</g>
<path d="M32.2099 8.19548C31.9589 17.539 18.2439 17.5296 18.0236 8.16563C18.1718 -1.11307 32.0633 -1.16427 32.2099 8.19548Z" fill="#A7CA4A"/>
<g opacity="0.3">
<path d="M31.6732 10.8916C27.8926 19.2169 15.1445 14.5757 18.6456 5.27121C19.8017 11.7448 26.4198 14.5022 31.6732 10.8916Z" fill="#31353F"/>
</g>
<path d="M57.014 96.2497C52.8247 96.2409 49.424 92.8259 49.4328 88.6372L49.5278 43.528C49.5282 43.339 49.5353 43.15 49.5497 42.9623C47.5421 43.0097 43.8636 42.949 38.2607 42.8474C31.3522 42.7229 22.7539 42.5674 15.6102 42.6764C11.7572 42.7353 8.65942 42.8682 6.40477 43.0706C3.24972 43.3549 2.3856 43.7224 2.18897 43.8333C1.91328 44.2422 1.39675 44.4328 0.911763 44.283C0.367162 44.1143 0.0311486 43.568 0.128185 43.0058C0.768127 39.2769 3.62658 36.2779 7.5877 35.1789C10.7312 34.3068 13.8967 34.8142 16.3096 36.4876C16.7001 34.7296 17.5372 33.1595 18.784 31.8684C20.3587 30.2375 22.5341 29.1348 24.9098 28.7617C27.2881 28.3887 29.7051 28.7718 31.7144 29.8405C33.7285 30.9118 35.2458 32.6035 36.1401 34.7644C38.0651 34.8141 39.9568 35.4046 41.5647 36.4496C42.2652 35.1808 43.2615 34.0883 44.5014 33.2417C46.0339 32.1945 47.8738 31.5576 49.8214 31.3988C51.771 31.24 53.6907 31.5718 55.3749 32.3576C56.8856 33.0626 58.1496 34.115 59.0799 35.4321C61.896 34.3675 65.1243 34.6592 67.908 36.2698C70.9977 38.0579 71.5 39.5 72.5 42C72.5238 42.4673 72.9274 42.8079 72.5 43C72.0733 43.1921 71.7098 43 71 43C67.908 43 67.449 42.9095 65.1921 42.9047L64.6947 42.9037C64.713 43.1209 64.7219 43.3388 64.7215 43.558L64.6265 88.6678C64.6177 92.8565 61.2028 96.2572 57.0141 96.2484L57.014 96.2497ZM50.9208 40.6051C51.2398 40.6057 51.5472 40.7411 51.7639 40.9829C52.0254 41.275 52.1177 41.6807 52.009 42.0572C51.8706 42.5335 51.7998 43.0301 51.7987 43.5321L51.7038 88.642C51.6976 91.5779 54.0816 93.9719 57.0182 93.9781C59.9547 93.9842 62.3481 91.6003 62.3542 88.6644L62.4491 43.5552C62.4502 43.0531 62.3815 42.5563 62.2451 42.0794C62.1473 41.7367 62.2165 41.3675 62.4316 41.0824C62.6467 40.798 62.9828 40.6311 63.3401 40.6319L65.1968 40.6358C66.9436 40.6394 68.6299 41.0546 70.1418 41.8346C69.4504 40.3773 68.2861 39.1153 66.7704 38.2381C64.3348 36.828 61.4869 36.6946 59.1538 37.8815C58.6069 38.1592 57.9377 37.9527 57.6433 37.4145C55.9539 34.3289 52.5921 33.4544 50.007 33.6648C47.4259 33.8752 44.2531 35.2802 43.0872 38.5931C42.9617 38.9501 42.6669 39.2203 42.3007 39.3154C41.9345 39.4104 41.5453 39.3164 41.2623 39.0658C39.6759 37.6595 37.5466 36.9238 35.4215 37.0467C34.9073 37.0764 34.4374 36.7563 34.2769 36.2667C32.8396 31.8819 28.7142 30.4656 25.263 31.0073C21.8299 31.5457 18.3542 34.166 18.3284 38.8058C18.326 39.279 18.0296 39.7013 17.5855 39.8653C17.1407 40.0286 16.6416 39.8995 16.3327 39.5409C14.433 37.3363 11.3158 36.5039 8.19642 37.3694C5.93282 37.9974 4.13213 39.3939 3.13358 41.2103C3.7257 41.0963 4.43778 40.9932 5.29462 40.8998C7.55473 40.6539 10.6297 40.4975 14.6946 40.4216C22.0455 40.2842 31.06 40.4473 38.3037 40.5778C44.2149 40.6848 49.7976 40.7857 50.725 40.6234C50.7907 40.6122 50.8571 40.6063 50.9228 40.6064L50.9208 40.6051Z" fill="#000326"/>
<path d="M44.8754 27.8499C42.162 27.8442 39.3875 25.9588 39.3341 22.3666C39.3341 22.3538 39.3342 22.3411 39.3342 22.3277C39.4034 18.7363 42.1858 16.8627 44.8991 16.8684C47.6125 16.8741 50.387 18.7595 50.4404 22.3517C50.4404 22.3645 50.4403 22.3772 50.4403 22.3906C50.3711 25.9826 47.5887 27.8556 44.8754 27.8499ZM41.6051 22.3526C41.6474 24.5761 43.2781 25.5756 44.8801 25.5789C46.4815 25.5823 48.1171 24.5903 48.1687 22.3664C48.1265 20.1429 46.4957 19.1441 44.8937 19.1407C43.2923 19.1373 41.6567 20.1293 41.6051 22.3526Z" fill="#000326"/>
<path d="M25.1 16.3086C22.9892 16.3042 21.0086 15.5787 19.5227 14.2652C17.8366 12.7756 16.9261 10.6722 16.8891 8.18199C16.8891 8.16925 16.8892 8.15652 16.8892 8.14311C16.9367 5.65236 17.8567 3.5529 19.549 2.07107C21.0398 0.7651 23.0241 0.0480292 25.1342 0.0524692C27.245 0.0569106 29.2255 0.782324 30.7115 2.09522C32.3975 3.58416 33.3081 5.68815 33.3451 8.17841C33.345 8.19114 33.345 8.20388 33.345 8.21728C33.2975 10.708 32.3775 12.8075 30.6852 14.2893C29.1937 15.596 27.2094 16.313 25.0993 16.3086L25.1 16.3086ZM19.1601 8.168C19.2294 12.2134 22.1936 14.0308 25.1048 14.0376C28.0159 14.0437 30.9878 12.2395 31.0747 8.19374C31.0055 4.14831 28.0412 2.33091 25.1301 2.32479C22.219 2.31866 19.2471 4.1229 19.1601 8.16867L19.1601 8.168Z" fill="#000326"/>
<g opacity="0.3">
<path d="M28.2923 6.11326C27.6486 7.48938 23.752 5.6231 24.4212 4.2591C25.0649 2.88298 28.9615 4.74926 28.2923 6.11326Z" fill="white"/>
</g>
<g opacity="0.3">
<path d="M46.7686 21.0068C46.3606 21.8572 44.5807 21.0042 44.9881 20.1538C45.3961 19.3033 47.1759 20.1563 46.7686 21.0068Z" fill="white"/>
</g>
</svg>
