<svg width="218" height="255" viewBox="0 0 218 255" fill="none" xmlns="http://www.w3.org/2000/svg">
<path d="M170.09 183.798C167.16 172.5 160.995 161.923 152.57 153.972C148.346 149.986 143.532 146.694 138.393 144.387C132.309 141.655 125.882 140.227 119.492 139.265C112.962 138.279 106.411 137.753 99.8809 136.703C93.8868 135.738 87.0948 134.635 81.8416 130.756C76.6823 126.948 75.0128 120.716 76.622 114.836C78.3786 108.419 83.377 104.108 88.2816 100.474C89.2974 99.7231 90.4875 98.9655 90.8294 97.5977C91.1646 96.2568 90.4673 95.0097 89.5253 94.0609C87.2826 91.8014 84.5135 89.971 81.8383 88.4088C76.3705 85.214 70.3262 83.2662 64.2918 82.7466C61.3551 82.4952 58.4319 82.5723 55.5622 82.9779C54.0637 83.1891 54.4961 85.7202 56.0047 85.5056C56.7121 85.4051 57.4261 85.328 58.1402 85.271C52.364 88.3418 47.8986 93.6251 45.5452 100.082C42.9907 107.088 43.5338 115.02 46.8359 122.177C54.8548 139.56 72.9108 146.922 87.2658 156.768C95.0233 162.088 102.556 168.239 109.03 175.316C114.953 181.793 120.012 189.581 121.128 198.455C122.184 206.866 119.315 214.854 112.483 218.81C105.979 222.572 97.9667 222.568 90.4707 221.616C82.0495 220.547 73.4003 218.331 65.0629 219.524C58.1838 220.51 51.1069 224.067 47.8048 230.624C47.0002 232.223 46.4806 233.94 46.1923 235.763C46.0582 236.615 47.2617 236.903 47.5533 236.189C49.729 230.839 54.7777 227.879 60.1617 227.084C66.548 226.139 73.0315 228.418 78.8848 231.74C91.2015 238.734 101.48 250.376 115.382 253.353C126.258 255.683 137.243 252.81 146.204 247.208C155.946 241.12 163.486 231.486 167.831 220.339C172.199 209.129 173.302 196.172 170.093 183.801L170.09 183.798ZM131.719 185.089C125.131 175.685 119.643 177.026 117.196 170.801C114.544 164.046 128.363 171.525 130.039 172.745C134.32 175.869 137.766 180.415 139.422 185.591C140.76 189.775 142.436 203.188 138.142 201.18C136.174 200.261 134.934 189.675 131.719 185.085V185.089ZM161.042 213.048C160.428 214.784 159.714 216.46 158.913 218.056C154.146 227.543 145.819 235.666 136.378 239.746C134.551 240.537 120.431 245.123 118.128 239.769C117.045 237.248 127.484 232.857 130.247 231.016C139.023 225.17 146.157 217.825 147.478 206.158C148.239 199.454 146.127 193.53 144.324 186.993C143.02 182.269 141.92 174.27 146.7 171.756C152.604 168.648 158.679 180.07 160.667 184.629C164.659 193.791 164.173 204.187 161.042 213.048Z" fill="#88A154"/>
<path d="M60.4902 83.0215C55.4414 85.7839 50.8084 90.0817 47.9522 95.8344C45.0959 101.587 44.2143 108.879 46.3464 114.853C45.9039 110.183 47.6102 105.201 50.6978 102.157C49.5111 112.164 53.4669 122.05 59.2933 128.979C65.1198 135.912 72.6459 140.361 80.1352 144.447C75.767 140.773 71.3486 137.042 67.9492 132.107C64.5499 127.173 62.23 120.81 62.7597 114.279C65.9512 123.16 72.304 130.2 79.924 133.297C75.6664 130.411 73.9299 123.606 75.2172 117.766C76.5045 111.923 80.3363 107.135 84.7816 104.266C80.0614 93.1524 71.1642 84.8787 60.993 82.1398L60.4935 83.0182L60.4902 83.0215Z" fill="#738A41"/>
<path d="M167.478 161.404C165.313 158.46 163.073 155.638 160.573 153.016C157.813 150.123 154.823 147.16 153.036 143.472C151.169 139.617 150.79 134.91 153.321 131.692C153.881 130.981 145.477 128.996 142.962 136.251C141.692 139.915 142.215 143.455 145.014 146.238C146.61 147.823 148.504 149 150.311 150.257C152.433 151.732 154.531 153.251 156.556 154.887C160.482 158.058 164.136 161.685 166.976 165.99C169.902 170.425 171.87 175.491 172.209 180.741C172.269 181.679 175.279 171.994 167.478 161.404Z" fill="#88A154"/>
<path d="M110.149 187.251C106.341 175.222 93.8399 170.382 84.2453 165.065C79.3039 162.326 74.6072 159.03 71.0436 154.441C70.7017 153.573 70.41 152.681 70.182 151.752C69.9172 150.673 66.1692 163.274 87.6547 173.878C92.5995 176.319 96.6123 180.881 99.254 186.108C101.601 190.747 102.573 196.031 101.889 201.009C101.054 207.067 97.7689 212.327 93.0856 215.562C92.2509 216.138 105.463 211.257 108.55 205.451C111.38 200.127 112.11 193.456 110.149 187.258V187.251Z" fill="#88A154"/>
<path d="M214.583 72.8671C212.314 61.9081 203.048 54.4256 193.584 50.7077C184.603 47.1777 174.904 46.3329 165.893 48.1029C160.791 49.102 155.906 50.9089 151.451 53.5238C149.493 54.6736 147.532 56.0045 145.792 57.5802C145.805 57.5232 145.815 57.4628 145.829 57.4058C146.271 55.2067 146.483 52.8902 146.064 50.5871C145.152 45.5819 141.263 42.3033 136.965 40.4695C132.738 38.6659 128.085 38.2 123.797 38.9878C122.768 39.1755 121.792 39.4303 120.86 39.7488C122.101 36.336 122.523 32.4674 122.188 28.6523C121.39 19.5037 115.946 11.5551 108.403 6.76455C100.079 1.47447 90.2462 0.160329 81.3455 2.09801C72.1499 4.09939 64.0002 9.09782 56.8027 15.0215C52.8401 18.28 48.2038 22.7622 48.2641 28.7462C48.2742 29.7251 48.4049 30.6973 48.6429 31.6293C48.0663 31.2605 47.483 30.932 46.9231 30.6437C44.1943 29.2424 41.2576 28.307 38.3343 27.7908C32.424 26.7482 26.4098 27.3516 20.9756 29.353C15.6017 31.3343 10.7609 34.7135 7.13021 39.2694C3.90856 43.3124 0.700316 49.4104 2.85591 55.2C4.42483 59.4173 8.40412 61.603 12.655 62.4277C10.7106 63.6949 8.95391 65.2136 7.53585 67.0943C3.6806 72.2 5.06178 79.1662 9.85906 83.8093C15.0016 88.7876 22.6552 90.665 29.1286 91.1343C36.0379 91.6372 42.8064 90.4973 49.2128 88.3853C51.1874 87.735 53.1251 86.984 55.0326 86.166C54.5331 87.4299 54.2079 88.7943 54.114 90.2962C53.7989 95.4488 56.6585 100.451 60.2355 104.031C68.4656 112.271 80.3667 113.21 90.1624 110.685C92.3045 110.132 94.4132 109.448 96.4682 108.651C94.7484 112.905 95.2714 118.031 97.5845 122.302C103.267 132.784 116.643 133.11 125.269 129.073C128.785 127.427 132.178 124.471 133.797 120.639C134.236 121.168 134.696 121.671 135.165 122.144C138.517 125.52 143.04 127.548 147.461 127.685C151.732 127.82 155.604 126.046 158.451 122.942C159.852 121.413 160.968 119.596 161.729 117.591C161.924 117.082 162.122 116.499 162.286 115.885C164.599 118.282 168.243 119.76 171.109 120.24C174.723 120.843 178.381 120.039 181.14 117.759C186.205 113.582 187.687 105.275 183.124 99.4114C190.251 99.9176 197.429 99.2069 203.47 95.7405C211.04 91.3958 216.642 82.7734 214.59 72.8604L214.583 72.8671Z" fill="#B0CC70"/>
<path d="M194.338 33.215C194.08 30.5599 192.068 28.6054 189.896 27.4421C186.892 25.833 183.369 25.6486 180.208 25.9034C179.785 25.9369 179.359 25.9805 178.937 26.0308C178.964 25.7224 178.977 25.4139 178.964 25.1022C178.81 20.9519 175.732 17.395 172.249 15.6719C168.162 13.6504 163.355 13.637 159.178 14.3309C155.383 14.9645 151.742 16.3155 148.397 18.1459C145.42 18.3303 142.543 18.7695 139.848 20.1138C137.32 21.3743 133.22 24.2574 133.941 27.8981C134.642 31.4382 138.822 31.8271 141.424 31.8639C142.688 31.8841 143.941 31.8137 145.178 31.6594C144.233 32.9736 143.76 34.6431 144.129 36.4131C144.763 39.4404 147.646 41.1467 150.187 42.0251C156.717 44.2846 163.637 45.116 170.284 44.8209C176.862 44.5293 183.583 43.0844 189.4 40.1779C191.974 38.8906 194.673 36.6981 194.335 33.215H194.338Z" fill="#B0CC70"/>
<path d="M136.921 1.85999C135.778 0.321245 133.743 0.0664628 132.117 0.00947207C129.902 -0.0709854 127.773 0.361474 125.909 1.29344C124.732 1.34037 123.542 1.6622 122.62 2.02761C120.917 2.7048 118.845 4.05246 118.222 5.95997C116.733 10.5192 123.291 11.4411 125.936 11.3272C129.684 11.1696 134.186 9.7046 136.583 6.66733C137.605 5.3733 138.091 3.43562 136.921 1.85999Z" fill="#B0CC70"/>
<path d="M213.614 98.3889C213.417 98.342 213.215 98.3017 213.014 98.2682C209.42 97.6581 196.323 98.0168 195.984 103.619C195.86 105.69 197.848 107.373 199.709 108.221C204.14 110.243 209.253 110.095 213.239 107.829C214.704 106.995 216.072 105.821 216.658 104.152C217.242 102.482 216.826 100.253 215.364 99.1499C214.838 98.7543 214.231 98.5331 213.614 98.3856V98.3889Z" fill="#B0CC70"/>
<path d="M205.347 40.0471C204.925 39.6884 204.452 39.3767 203.943 39.1353C200.573 37.5395 191.21 40.2181 193.761 45.5216C194.697 47.4626 196.705 47.7208 198.445 47.7677C200.583 47.8247 202.796 47.7174 204.824 47.1375C208.562 46.0714 207.875 42.2027 205.347 40.0505V40.0471Z" fill="#B0CC70"/>
<path d="M17.7908 97.4301C16.0073 95.7606 13.5668 95.4723 11.5922 96.2567C8.61192 95.0901 4.95781 97.8424 3.04359 99.7365C1.42438 101.339 -0.111014 103.236 0.0063195 105.831C0.106891 108.061 1.40092 110.156 3.51963 110.793C9.11478 112.476 25.9807 105.104 17.7941 97.4301H17.7908Z" fill="#B0CC70"/>
<path d="M214.751 72.9174C214.583 72.1095 214.375 71.3217 214.134 70.554C214.087 72.8638 213.607 75.1199 212.441 77.2185C209.873 81.8381 205.793 85.1805 201.767 87.6746C197.576 90.2727 193.178 92.0328 188.578 92.9815C184.147 93.8967 179.668 94.1884 175.206 94.5102C176.805 97.4067 178.303 100.87 178.109 104.51C177.854 109.301 174.307 111.842 170.66 112.13C165.668 112.526 160.884 109.586 157.535 105.429C157.274 108.097 156.225 110.521 154.662 112.496C149.382 119.18 136.445 121.98 134.156 111.074C132.506 115.114 129.549 118.064 126.14 119.817C119.764 123.093 112.053 122.65 106.435 118.104C103.786 115.962 101.802 112.878 101.456 108.919C101.108 104.936 102.238 100.907 103.538 97.2189C99.1533 99.7097 94.5471 101.654 89.8404 102.878C82.0259 104.909 73.5779 104.872 67.2419 98.7342C64.6572 96.23 62.6189 92.8373 61.7842 88.8983C60.9561 84.9994 61.4557 80.9464 62.9039 77.2621C56.0147 78.3148 49.1892 80.0345 42.3001 81.0637C36.3026 81.9588 30.218 82.2974 24.2977 81.1006C21.5018 80.5374 18.7193 79.6859 16.1681 78.2309C14.7031 77.3962 13.1677 76.3033 12.2727 74.6238C10.8043 71.8782 12.1821 68.8141 13.8181 66.5512C16.1044 63.3865 19.0411 60.9225 21.8437 58.4753C20.1474 57.9489 18.4545 57.4193 16.7816 56.8091C13.2281 55.5218 5.49411 52.6488 2.79543 47.7845C2.16183 50.2016 2.09478 52.7527 3.0234 55.2436C4.59232 59.4609 8.57161 61.6466 12.8224 62.4713C10.8781 63.7385 9.1214 65.2572 7.70334 67.1379C3.84808 72.2436 5.22927 79.2098 10.0265 83.8529C15.1691 88.8312 22.8226 90.7086 29.2961 91.1779C36.2054 91.6808 42.9739 90.5409 49.3803 88.4289C51.3549 87.7786 53.2926 87.0276 55.2001 86.2096C54.7039 87.4735 54.3754 88.8379 54.2815 90.3398C53.9664 95.4924 56.826 100.491 60.403 104.075C68.6331 112.315 80.5341 113.253 90.3298 110.729C92.472 110.176 94.5807 109.492 96.6357 108.694C94.9159 112.948 95.4389 118.074 97.752 122.345C103.438 132.828 116.81 133.153 125.436 129.117C128.953 127.471 132.345 124.514 133.965 120.682C134.404 121.212 134.863 121.715 135.332 122.188C138.681 125.563 143.207 127.592 147.629 127.729C151.9 127.863 155.772 126.09 158.618 122.985C160.019 121.457 161.136 119.64 161.897 117.635C162.091 117.125 162.289 116.542 162.453 115.929C164.766 118.326 168.41 119.804 171.277 120.283C174.891 120.887 178.548 120.082 181.307 117.803C186.373 113.626 187.854 105.318 183.292 99.455C190.419 99.9612 197.596 99.2505 203.637 95.7841C211.207 91.4394 216.809 82.817 214.757 72.904L214.751 72.9174Z" fill="#88A154"/>
<path d="M194.502 33.2653C194.251 30.6906 192.357 28.7798 190.261 27.6031C190.325 28.059 190.349 28.5216 190.302 28.991C190.204 29.9497 189.852 30.8214 189.333 31.5689C188.059 33.4027 186.047 34.4051 184.234 35.1426C181.914 36.0846 179.5 36.6512 177.097 37.0903C174.934 37.4859 172.765 37.7608 170.593 37.9921C169.168 38.143 167.75 38.3039 166.325 38.3508C164.394 38.4112 162.467 38.3643 160.546 38.2234C158.481 38.0692 156.416 37.8111 154.394 37.3183C152.778 36.9261 151.079 36.4098 149.691 35.337C148.708 34.5794 147.911 33.4161 148.132 31.8975C148.256 31.046 148.655 30.2716 149.101 29.6011C149.691 28.706 150.405 27.9349 151.149 27.2242C149.885 27.2175 148.625 27.1941 147.364 27.1404C145.38 27.0566 143.395 26.9125 141.427 26.6443C139.61 26.3962 137.749 26.0844 136.03 25.3503C135.631 25.1793 135.155 24.958 134.726 24.653C134.156 25.652 133.874 26.7583 134.109 27.9484C134.809 31.4885 138.99 31.8774 141.591 31.9142C142.855 31.9344 144.109 31.864 145.346 31.7097C144.401 33.0239 143.928 34.6934 144.297 36.4634C144.93 39.4907 147.813 41.197 150.354 42.0754C156.885 44.3349 163.804 45.1663 170.452 44.8713C177.03 44.5796 183.751 43.1347 189.567 40.2282C192.142 38.9409 194.841 36.7484 194.502 33.2653Z" fill="#88A154"/>
<path d="M137.632 3.00989C137.528 3.47252 137.384 3.92174 137.19 4.34749C136.764 5.28281 136.127 6.05386 135.399 6.66065C133.737 8.04519 131.668 8.59498 129.721 8.80953C127.582 9.0442 125.403 8.86652 123.334 8.29997C122.426 8.05189 121.531 7.72 120.682 7.26408C119.999 6.89531 119.328 6.43604 118.795 5.80243C118.721 5.71527 118.651 5.6214 118.584 5.52754C118.51 5.6851 118.44 5.84266 118.386 6.01028C116.898 10.5695 123.455 11.4914 126.1 11.3775C129.848 11.2199 134.35 9.75491 136.747 6.71764C137.542 5.71192 138.008 4.31732 137.629 3.00989H137.632Z" fill="#88A154"/>
<path d="M216.29 103.377C214.737 104.735 212.867 105.509 211.026 105.989C208.914 106.539 206.745 106.713 204.613 106.592C202.605 106.478 200.584 106.116 198.693 105.338C197.825 104.98 196.933 104.52 196.148 103.897C196.172 105.865 198.079 107.46 199.873 108.278C204.305 110.3 209.417 110.152 213.403 107.886C214.868 107.051 216.236 105.878 216.823 104.209C217 103.706 217.084 103.153 217.077 102.593C216.829 102.874 216.568 103.139 216.29 103.381V103.377Z" fill="#88A154"/>
<path d="M207.117 42.1558C206.641 42.6419 206.058 42.9805 205.495 43.2722C204.704 43.6778 203.886 43.9963 203.061 44.2611C202.273 44.5159 201.472 44.7238 200.667 44.8646C200.342 44.9215 200.017 44.9685 199.689 44.992C199.192 45.0255 198.696 44.935 198.213 44.8511C197.151 44.6634 196.061 44.3516 195.129 43.7113C194.633 43.3727 194.13 42.8799 193.909 42.2262C193.393 43.175 193.316 44.2947 193.929 45.5719C194.864 47.513 196.873 47.7677 198.612 47.818C200.751 47.875 202.964 47.7677 204.992 47.1878C207.707 46.4134 208.086 44.1606 207.121 42.1592L207.117 42.1558Z" fill="#88A154"/>
<path d="M19.3899 99.2035C19.1285 99.4851 18.8536 99.7533 18.5753 100.011C17.7841 100.739 16.9427 101.389 16.0845 101.993C14.0697 103.411 11.9443 104.597 9.77862 105.603C7.70684 106.569 5.56131 107.397 3.3789 107.826C2.52404 107.993 1.65242 108.111 0.790852 108.057C0.750623 108.057 0.710395 108.05 0.670166 108.047C1.24343 109.361 2.27932 110.421 3.68062 110.843C8.85672 112.399 23.6642 106.21 19.3899 99.2035Z" fill="#88A154"/>
<path d="M160.462 82.3846C161.019 78.3014 159.919 74.1477 157.214 71.667C154.602 69.27 151.3 68.7035 148.32 70.7015C148.273 70.735 148.303 70.8188 148.353 70.8054C154.391 69.1359 160.315 74.8853 158.487 82.522C157.706 85.7906 155.695 88.4725 153.013 89.5822C151.675 90.132 150.244 90.3096 148.863 90.1018C147.609 89.9107 146.392 88.8849 145.145 89.0391C144.337 89.1363 143.697 90.1588 144.143 91.0807C144.173 91.1444 144.21 91.2014 144.243 91.2617C143.945 91.7143 143.811 92.3647 144.019 92.8876C144.495 94.0811 143.767 96.1529 143.462 97.353C143.026 99.0728 142.43 100.746 141.632 102.284C140.11 105.214 137.706 107.595 134.927 108.473C131.658 109.505 128.782 107.816 126.207 105.633C123.596 103.418 121.313 99.9344 121.249 95.8713C121.249 95.8076 121.175 95.7975 121.159 95.8579C119.854 100.658 122.074 104.587 125.031 107.42C128.135 110.39 131.672 112.378 135.792 111.426C139.738 110.515 142.963 107.273 144.994 103.116C146.308 100.424 147.907 96.059 146.915 92.9882C147.508 93.1257 148.108 93.1961 148.645 93.2463C150.462 93.4106 152.329 93.0351 154.035 92.1736C157.455 90.4504 159.869 86.7695 160.465 82.3913L160.462 82.3846Z" fill="#88A154"/>
<path d="M118.426 45.9943C118.175 45.6591 117.91 45.3439 117.639 45.0422C120.046 43.0945 121.403 38.6626 122.04 35.6086C122.935 31.3041 122.989 26.5135 121.92 22.3331C119.596 13.2347 112.281 8.97379 105.556 5.53758C105.52 5.52082 105.489 5.57781 105.523 5.60128C111.128 9.44312 117.732 14.0661 119.677 22.0548C120.589 25.7961 120.455 30.0436 119.727 33.8921C119.382 35.7226 118.872 37.5228 118.111 39.1789C117.437 40.6472 116.355 41.8843 115.681 43.3291C111.118 40.1846 104.826 40.8215 100.93 45.649C100.655 45.9909 101.004 46.6346 101.346 46.3228C105.784 42.2966 112.469 42.3972 116.422 46.8022C118.55 49.1757 119.844 52.8064 118.658 56.323C117.213 60.6107 113.465 62.4344 110.595 65.0527C110.163 65.4449 110.36 66.3467 110.954 66.1455C114.822 64.8515 118.751 61.8243 120.367 57.1645C121.745 53.1919 120.662 48.9846 118.43 45.9876L118.426 45.9943Z" fill="#88A154"/>
<path d="M113.451 97.2759C110.173 97.2156 106.542 97.1384 103.723 95.0231C101.208 93.1357 100.032 89.8537 101.5 86.4644C101.738 85.918 101.477 85.2509 100.944 85.2576C98.9623 85.2844 98.0538 87.326 98.0068 89.5218C97.9532 91.9959 99.0025 94.2956 100.461 95.9048C104.055 99.874 109.003 99.703 113.515 97.9397C113.82 97.819 113.773 97.2826 113.451 97.2759Z" fill="#88A154"/>
<path d="M146.188 49.3936C144.632 45.069 141.276 42.1558 137.481 41.2842C137.468 41.2842 137.455 41.3043 137.465 41.3144C139.734 43.7214 142.45 46.0044 143.871 49.3266C145.272 52.5952 144.917 56.3096 143.965 59.7726C143.848 60.195 144.29 60.6677 144.612 60.3761C147.552 57.7411 147.482 52.9975 146.184 49.397L146.188 49.3936Z" fill="#88A154"/>
<path d="M70.2861 61.4254C68.1875 65.3846 63.4137 65.9813 61.01 62.4311C60.011 60.9527 59.4444 58.8977 59.7763 56.9466C60.0881 55.1229 61.1709 54.1037 62.3141 52.984C62.6694 52.6354 62.4549 51.9884 62.0895 51.8543C62.0794 51.8509 62.0693 51.8509 62.0593 51.8476C61.9922 51.7269 61.895 51.6297 61.7676 51.5794C58.6767 50.3457 54.6773 49.3568 53.1151 45.535C51.5227 41.6362 54.4527 37.3518 57.2251 35.3437C63.9735 30.4559 70.1855 39.4068 72.9847 45.6959C73.1054 45.9708 73.4541 45.7228 73.3401 45.4479C71.389 40.7411 70.0447 35.6287 65.9682 32.9468C62.3845 30.5934 58.2543 31.0024 54.9354 34.157C51.8982 37.0434 49.4476 41.8105 51.1104 46.3195C52.6223 50.4262 56.0015 52.0789 59.4712 52.7326C58.7471 53.5607 58.2208 54.7642 57.9593 55.8537C57.2888 58.6597 58.0029 61.707 59.488 63.8492C62.5521 68.271 68.7741 67.4195 70.4839 61.5259C70.5274 61.3818 70.3531 61.3047 70.2861 61.4287V61.4254Z" fill="#88A154"/>
</svg>
