<svg width="118" height="19" viewBox="0 0 118 19" fill="none" xmlns="http://www.w3.org/2000/svg">
<path d="M109.28 1.1887L110.641 5.37728C110.823 5.93646 111.343 6.31343 111.931 6.31343H116.335C117.649 6.31343 118.195 7.99515 117.133 8.76585L113.571 11.3544C113.096 11.7 112.897 12.3115 113.079 12.8707L114.44 17.0593C114.846 18.3075 113.416 19.3462 112.354 18.5755L108.792 15.987C108.316 15.6414 107.673 15.6414 107.198 15.987L103.636 18.5755C102.574 19.3483 101.143 18.3095 101.55 17.0593L102.911 12.8707C103.093 12.3115 102.894 11.7 102.419 11.3544L98.8565 8.76585C97.7947 7.99306 98.3392 6.31343 99.6544 6.31343H104.059C104.645 6.31343 105.167 5.93437 105.349 5.37728L106.71 1.1887C107.116 -0.0615968 108.884 -0.0615968 109.288 1.1887H109.28Z" fill="white"/>
<path d="M84.9275 1.1887L86.2888 5.37728C86.471 5.93646 86.9904 6.31343 87.5789 6.31343H91.9832C93.2963 6.31343 93.8429 7.99515 92.7811 8.76585L89.2187 11.3544C88.7433 11.7 88.5443 12.3115 88.7265 12.8707L90.0878 17.0593C90.4941 18.3075 89.0637 19.3462 88.0019 18.5755L84.4395 15.987C83.9641 15.6414 83.3212 15.6414 82.8457 15.987L79.2834 18.5755C78.2216 19.3483 76.7911 18.3095 77.1974 17.0593L78.5587 12.8707C78.7409 12.3115 78.542 11.7 78.0666 11.3544L74.5042 8.76585C73.4424 7.99306 73.9869 6.31343 75.3021 6.31343H79.7064C80.2928 6.31343 80.8143 5.93437 80.9965 5.37728L82.3578 1.1887C82.7641 -0.0615968 84.5317 -0.0615968 84.9359 1.1887H84.9275Z" fill="white"/>
<path d="M60.5749 1.1887L61.9362 5.37728C62.1184 5.93646 62.6378 6.31343 63.2263 6.31343H67.6306C68.9437 6.31343 69.4903 7.99515 68.4285 8.76585L64.8661 11.3544C64.3907 11.7 64.1918 12.3115 64.374 12.8707L65.7353 17.0593C66.1416 18.3075 64.7112 19.3462 63.6494 18.5755L60.087 15.987C59.6116 15.6414 58.9686 15.6414 58.4932 15.987L54.9308 18.5755C53.869 19.3483 52.4386 18.3095 52.8449 17.0593L54.2062 12.8707C54.3884 12.3115 54.1894 11.7 53.714 11.3544L50.1516 8.76585C49.0898 7.99306 49.6343 6.31343 50.9496 6.31343H55.3539C55.9403 6.31343 56.4617 5.93437 56.6439 5.37728L58.0052 1.1887C58.4115 -0.0615968 60.1791 -0.0615968 60.5833 1.1887H60.5749Z" fill="white"/>
<path d="M36.2246 1.1887L37.5859 5.37728C37.7681 5.93646 38.2875 6.31343 38.876 6.31343H43.2803C44.5934 6.31343 45.14 7.99515 44.0782 8.76585L40.5158 11.3544C40.0404 11.7 39.8414 12.3115 40.0236 12.8707L41.3849 17.0593C41.7912 18.3075 40.3608 19.3462 39.299 18.5755L35.7366 15.987C35.2612 15.6414 34.6183 15.6414 34.1429 15.987L30.5805 18.5755C29.5187 19.3483 28.0883 18.3095 28.4946 17.0593L29.8558 12.8707C30.0381 12.3115 29.8391 11.7 29.3637 11.3544L25.8013 8.76585C24.7395 7.99306 25.284 6.31343 26.5992 6.31343H31.0035C31.5899 6.31343 32.1114 5.93437 32.2936 5.37728L33.6549 1.1887C34.0612 -0.0615968 35.8288 -0.0615968 36.233 1.1887H36.2246Z" fill="white"/>
<path d="M11.8721 1.1887L13.2333 5.37728C13.4156 5.93646 13.9349 6.31343 14.5234 6.31343H18.9277C20.2409 6.31343 20.7875 7.99515 19.7257 8.76585L16.1633 11.3544C15.6879 11.7 15.4889 12.3115 15.6711 12.8707L17.0324 17.0593C17.4387 18.3075 16.0083 19.3462 14.9465 18.5755L11.3841 15.987C10.9087 15.6414 10.2657 15.6414 9.79033 15.987L6.22794 18.5755C5.16613 19.3483 3.73573 18.3095 4.14202 17.0593L5.50331 12.8707C5.68551 12.3115 5.48656 11.7 5.01115 11.3544L1.44876 8.76585C0.386949 7.99306 0.931467 6.31343 2.24668 6.31343H6.65098C7.23739 6.31343 7.75887 5.93437 7.94107 5.37728L9.30236 1.1887C9.70865 -0.0615968 11.4762 -0.0615968 11.8804 1.1887H11.8721Z" fill="white"/>
</svg>
