<svg width="40" height="40" viewBox="0 0 40 40" fill="none" xmlns="http://www.w3.org/2000/svg">
<path d="M16.4795 16.7801C15.3395 16.7801 14.4395 17.7801 14.4395 19.0001C14.4395 20.2201 15.3595 21.2201 16.4795 21.2201C17.6195 21.2201 18.5195 20.2201 18.5195 19.0001C18.5395 17.7801 17.6195 16.7801 16.4795 16.7801ZM23.7795 16.7801C22.6395 16.7801 21.7395 17.7801 21.7395 19.0001C21.7395 20.2201 22.6595 21.2201 23.7795 21.2201C24.9195 21.2201 25.8195 20.2201 25.8195 19.0001C25.8195 17.7801 24.9195 16.7801 23.7795 16.7801Z" fill="#FAFAFA"/>
<path d="M33.4996 0H6.69961C4.43961 0 2.59961 1.84 2.59961 4.12V31.16C2.59961 33.44 4.43961 35.28 6.69961 35.28H29.3796L28.3196 31.58L30.8796 33.96L33.2996 36.2L37.5996 40V4.12C37.5996 1.84 35.7596 0 33.4996 0ZM25.7796 26.12C25.7796 26.12 25.0596 25.26 24.4596 24.5C27.0796 23.76 28.0796 22.12 28.0796 22.12C27.2596 22.66 26.4796 23.04 25.7796 23.3C24.7796 23.72 23.8196 24 22.8796 24.16C20.9596 24.52 19.1996 24.42 17.6996 24.14C16.5596 23.92 15.5796 23.6 14.7596 23.28C14.2996 23.1 13.7996 22.88 13.2996 22.6C13.2396 22.56 13.1796 22.54 13.1196 22.5C13.0796 22.48 13.0596 22.46 13.0396 22.44C12.6796 22.24 12.4796 22.1 12.4796 22.1C12.4796 22.1 13.4396 23.7 15.9796 24.46C15.3796 25.22 14.6396 26.12 14.6396 26.12C10.2196 25.98 8.53961 23.08 8.53961 23.08C8.53961 16.64 11.4196 11.42 11.4196 11.42C14.2996 9.26 17.0396 9.32 17.0396 9.32L17.2396 9.56C13.6396 10.6 11.9796 12.18 11.9796 12.18C11.9796 12.18 12.4196 11.94 13.1596 11.6C15.2996 10.66 16.9996 10.4 17.6996 10.34C17.8196 10.32 17.9196 10.3 18.0396 10.3C19.2596 10.14 20.6396 10.1 22.0796 10.26C23.9796 10.48 26.0196 11.04 28.0996 12.18C28.0996 12.18 26.5196 10.68 23.1196 9.64L23.3996 9.32C23.3996 9.32 26.1396 9.26 29.0196 11.42C29.0196 11.42 31.8996 16.64 31.8996 23.08C31.8996 23.08 30.1996 25.98 25.7796 26.12Z" fill="#FAFAFA"/>
</svg>
