<svg width="40" height="40" viewBox="0 0 40 40" fill="none" xmlns="http://www.w3.org/2000/svg">
<g clip-path="url(#clip0_12_1609)">
<path d="M12.5836 36.2503C27.6742 36.2503 35.9305 23.7448 35.9305 12.9034C35.9305 12.5518 35.9227 12.1924 35.907 11.8409C37.5131 10.6794 38.8992 9.24071 40 7.59245C38.5042 8.25795 36.9161 8.69259 35.2898 8.88151C37.0021 7.85513 38.2842 6.24274 38.8984 4.34323C37.2876 5.29788 35.526 5.9713 33.6891 6.33463C32.4514 5.01955 30.815 4.14881 29.0328 3.85703C27.2506 3.56526 25.422 3.8687 23.8296 4.72044C22.2372 5.57219 20.9697 6.92479 20.2231 8.56914C19.4765 10.2135 19.2924 12.058 19.6992 13.8174C16.4375 13.6538 13.2466 12.8065 10.3333 11.3304C7.42004 9.85444 4.84949 7.78268 2.78828 5.24948C1.74067 7.05569 1.42009 9.19303 1.89172 11.2271C2.36334 13.2612 3.59177 15.0394 5.32734 16.2003C4.02438 16.1589 2.74996 15.8081 1.60938 15.1768V15.2784C1.60821 17.1739 2.2635 19.0113 3.46385 20.4782C4.6642 21.9452 6.33554 22.9512 8.19375 23.3253C6.98676 23.6555 5.71997 23.7036 4.49141 23.4659C5.01576 25.096 6.03595 26.5218 7.40962 27.5442C8.78328 28.5666 10.4419 29.1346 12.1539 29.169C9.24737 31.4521 5.65696 32.6905 1.96094 32.6846C1.30548 32.6836 0.650665 32.6435 0 32.5643C3.75476 34.9732 8.12255 36.2526 12.5836 36.2503Z" fill="#FAFAFA"/>
</g>
<defs>
<clipPath id="clip0_12_1609">
<rect width="40" height="40" fill="white"/>
</clipPath>
</defs>
</svg>
