<svg width="31" height="36" viewBox="0 0 31 36" fill="none" xmlns="http://www.w3.org/2000/svg">
<path d="M11.8492 15.6748C10.9414 15.6748 10.2246 16.4878 10.2246 17.4796C10.2246 18.4714 10.9573 19.2844 11.8492 19.2844C12.7571 19.2844 13.4738 18.4714 13.4738 17.4796C13.4898 16.4878 12.7571 15.6748 11.8492 15.6748ZM17.6628 15.6748C16.755 15.6748 16.0381 16.4878 16.0381 17.4796C16.0381 18.4714 16.7709 19.2844 17.6628 19.2844C18.5707 19.2844 19.2874 18.4714 19.2874 17.4796C19.2874 16.4878 18.5707 15.6748 17.6628 15.6748Z" fill="url(#paint0_linear_86_5920)"/>
<path d="M26.7614 0H3.55088C1.59358 0 0 1.62676 0 3.64253V27.5489C0 29.5646 1.59358 31.1914 3.55088 31.1914H23.1933L22.2753 27.9203L24.4924 30.0244L26.5883 32.0048L30.3124 35.3644V3.64253C30.3124 1.62676 28.7188 0 26.7614 0ZM20.0755 23.093C20.0755 23.093 19.452 22.3327 18.9323 21.6607C21.2013 21.0064 22.0675 19.5566 22.0675 19.5566C21.3573 20.0339 20.6817 20.3699 20.0755 20.5998C19.2094 20.9711 18.378 21.2186 17.5639 21.3601C15.9011 21.6784 14.3767 21.59 13.0776 21.3425C12.0903 21.1479 11.2416 20.865 10.5314 20.5821C10.133 20.423 9.69997 20.2284 9.26693 19.9809C9.21496 19.9455 9.163 19.9279 9.11103 19.8925C9.0764 19.8748 9.05909 19.8572 9.04175 19.8395C8.72998 19.6626 8.55676 19.5388 8.55676 19.5388C8.55676 19.5388 9.38818 20.9534 11.5881 21.6254C11.0684 22.2973 10.4275 23.093 10.4275 23.093C6.59944 22.9693 5.14445 20.4053 5.14445 20.4053C5.14445 14.7116 7.63872 10.0965 7.63872 10.0965C10.133 8.18687 12.5061 8.23991 12.5061 8.23991L12.6792 8.4521C9.56139 9.37157 8.12372 10.7685 8.12372 10.7685C8.12372 10.7685 8.5048 10.5563 9.14568 10.2557C10.9991 9.42463 12.4714 9.19475 13.0776 9.14171C13.1815 9.12402 13.2682 9.10635 13.3721 9.10635C14.4288 8.96489 15.6238 8.92952 16.8709 9.07098C18.5166 9.26548 20.2833 9.76058 22.0847 10.7685C22.0847 10.7685 20.7163 9.4423 17.7717 8.52282L18.0141 8.23991C18.0141 8.23991 20.3872 8.18687 22.8816 10.0965C22.8816 10.0965 25.3758 14.7116 25.3758 20.4053C25.3758 20.4053 23.9035 22.9693 20.0755 23.093Z" fill="url(#paint1_linear_86_5920)"/>
<defs>
<linearGradient id="paint0_linear_86_5920" x1="19.2874" y1="15.6748" x2="10.6074" y2="19.3646" gradientUnits="userSpaceOnUse">
<stop stop-color="#00A79D"/>
<stop offset="1" stop-color="#8C41CE"/>
</linearGradient>
<linearGradient id="paint1_linear_86_5920" x1="30.3124" y1="2.40512e-06" x2="-3.25871" y2="4.87186" gradientUnits="userSpaceOnUse">
<stop stop-color="#00A79D"/>
<stop offset="1" stop-color="#8C41CE"/>
</linearGradient>
</defs>
</svg>
