<svg width="34" height="26" viewBox="0 0 34 26" fill="none" xmlns="http://www.w3.org/2000/svg">
<path d="M34 3.08247C32.725 3.61855 31.45 4.02061 30.0333 4.15463C31.45 3.35051 32.5833 2.01031 33.15 0.536082C31.7333 1.3402 30.3167 1.87629 28.7583 2.14433C27.4833 0.804123 25.6417 0 23.6583 0C19.8333 0 16.7167 2.94845 16.7167 6.567C16.7167 7.10308 16.7167 7.63917 16.8583 8.04123C10.9083 7.77319 5.80833 5.09278 2.40833 1.07216C1.7 2.14433 1.41667 3.21649 1.41667 4.42267C1.41667 6.70102 2.69167 8.71133 4.53333 9.91751C3.4 9.91751 2.26667 9.64947 1.41667 9.11339V9.24741C1.41667 12.4639 3.825 15.1443 6.94167 15.6804C6.375 15.8144 5.80833 15.9485 5.1 15.9485C4.675 15.9485 4.25 15.9485 3.825 15.8144C4.675 18.4949 7.225 20.3711 10.3417 20.3711C7.93333 22.1134 4.95833 23.1856 1.7 23.1856C1.13333 23.1856 0.566667 23.1856 0 23.0515C3.11667 24.9278 6.8 26 10.625 26C23.5167 26 30.4583 15.9485 30.4583 7.2371V6.43298C31.875 5.49484 33.0083 4.28865 34 3.08247Z" fill="url(#paint0_linear_86_5923)"/>
<defs>
<linearGradient id="paint0_linear_86_5923" x1="34" y1="1.76825e-06" x2="-2.65155" y2="8.11473" gradientUnits="userSpaceOnUse">
<stop stop-color="#00A79D"/>
<stop offset="1" stop-color="#8C41CE"/>
</linearGradient>
</defs>
</svg>
