<svg width="18" height="18" viewBox="0 0 18 18" fill="none" xmlns="http://www.w3.org/2000/svg">
<path d="M7.41605 7.55078C6.90305 7.55078 6.49805 8.00078 6.49805 8.54978C6.49805 9.09878 6.91205 9.54878 7.41605 9.54878C7.92905 9.54878 8.33405 9.09878 8.33405 8.54978C8.34305 8.00078 7.92905 7.55078 7.41605 7.55078ZM10.701 7.55078C10.188 7.55078 9.78305 8.00078 9.78305 8.54978C9.78305 9.09878 10.197 9.54878 10.701 9.54878C11.214 9.54878 11.619 9.09878 11.619 8.54978C11.619 8.00078 11.214 7.55078 10.701 7.55078Z" fill="#999999"/>
<path d="M15.0749 0H3.01492C1.99792 0 1.16992 0.828 1.16992 1.854V14.022C1.16992 15.048 1.99792 15.876 3.01492 15.876H13.2209L12.7439 14.211L13.8959 15.282L14.9849 16.29L16.9199 18V1.854C16.9199 0.828 16.0919 0 15.0749 0ZM11.6009 11.754C11.6009 11.754 11.2769 11.367 11.0069 11.025C12.1859 10.692 12.6359 9.954 12.6359 9.954C12.2669 10.197 11.9159 10.368 11.6009 10.485C11.1509 10.674 10.7189 10.8 10.2959 10.872C9.43192 11.034 8.63992 10.989 7.96492 10.863C7.45192 10.764 7.01092 10.62 6.64192 10.476C6.43492 10.395 6.20992 10.296 5.98492 10.17C5.95792 10.152 5.93092 10.143 5.90392 10.125C5.88592 10.116 5.87692 10.107 5.86792 10.098C5.70592 10.008 5.61592 9.945 5.61592 9.945C5.61592 9.945 6.04792 10.665 7.19092 11.007C6.92092 11.349 6.58792 11.754 6.58792 11.754C4.59892 11.691 3.84292 10.386 3.84292 10.386C3.84292 7.488 5.13892 5.139 5.13892 5.139C6.43492 4.167 7.66792 4.194 7.66792 4.194L7.75792 4.302C6.13792 4.77 5.39092 5.481 5.39092 5.481C5.39092 5.481 5.58892 5.373 5.92192 5.22C6.88492 4.797 7.64992 4.68 7.96492 4.653C8.01892 4.644 8.06392 4.635 8.11792 4.635C8.66692 4.563 9.28792 4.545 9.93592 4.617C10.7909 4.716 11.7089 4.968 12.6449 5.481C12.6449 5.481 11.9339 4.806 10.4039 4.338L10.5299 4.194C10.5299 4.194 11.7629 4.167 13.0589 5.139C13.0589 5.139 14.3549 7.488 14.3549 10.386C14.3549 10.386 13.5899 11.691 11.6009 11.754Z" fill="#999999"/>
</svg>
